<svg xmlns="http://www.w3.org/2000/svg" viewBox="0 0 94 22">
  <defs/>
  <g fill="none" fill-rule="nonzero">
    <path fill="#FFF" d="M8.0159 15.0728l1.3155-1.8141c.9872.8472 2.4674 1.3922 3.8043 1.3922 1.0278 0 1.7476-.3441 1.7476-1.0493 0-.7457-.5754-1.0278-2.077-1.2895-2.076-.3622-4.2974-.8473-4.2974-3.3666 0-2.157 1.8052-3.4071 4.2567-3.4071 2.2407 0 3.5979.564 4.8118 1.5129l-1.2951 1.8333c-1.1113-.7457-2.2012-1.1688-3.229-1.1688-.9465 0-1.4802.3621-1.4802.9477 0 .6442.5957.9026 1.953 1.1485 2.1593.3633 4.4417.8473 4.4417 3.2865 0 2.5948-2.3027 3.6271-4.8321 3.6271-2.4053 0-4.0096-.7243-5.1198-1.6528zM25.7942 5.5384c2.4888 0 4.215 1.875 4.215 5.5834 0 3.7085-1.7477 5.543-4.2568 5.543-1.4802 0-2.508-.5236-3.3305-1.4295v5.3025h-3.3236V8.6635c0-1.2907-.0824-2.077-.3092-2.6208l3.2414-.5043c.1647.3835.309 1.3707.309 1.9766.7199-.9714 1.83-1.9766 3.4547-1.9766zm.9025 5.6049c0-1.795-.6385-2.9243-2.1188-2.9243-.8427 0-1.6031.5054-2.1582 1.0492v3.9702c.7187.6656 1.3155.9883 2.2.9883 1.3798 0 2.0793-1.1282 2.0793-3.0834h-.0023zM31.1723 11.1433c0-4.2139 2.9401-5.605 5.614-5.605 2.6524 0 5.5925 1.3911 5.5925 5.605 0 4.1743-2.9401 5.5823-5.5925 5.5823-2.6525 0-5.614-1.4102-5.614-5.5823zm7.8974.0192c0-1.7939-.6374-3.2459-2.2823-3.2459-1.5795 0-2.3027 1.311-2.3027 3.2459 0 1.7938.616 3.2853 2.3027 3.2853 1.5625 0 2.2812-1.3302 2.2812-3.2853h.0011zM47.2718 7.6346c.598-.9026 1.6867-2.0962 3.5584-2.0962.1386.006.2768.0195.414.0406l-.2493 2.842a5.535 5.535 0 00-.765-.0599c-1.3154 0-2.3026.6848-2.9197 1.4667V16.5H44V8.6635c0-1.2907-.0824-2.077-.3091-2.6208l3.2289-.5043c.1647.3835.308 1.4926.308 2.0962h.044zM57.7483 14.045a6.5673 6.5673 0 001.5005-.2008l.6375 2.3376c-.5743.2009-1.4588.4637-3.0834.4637-3.2493 0-3.3113-1.7532-3.3113-3.7693V8.3487h-1.7273l.1997-2.7968h1.5276V2.6761l3.2898-.6047v3.4839h2.8205v2.7934h-2.8205v4.2218c0 .95.2268 1.4745.967 1.4745zM60.2383 15.0728l1.3166-1.8141c.986.8472 2.4662 1.3922 3.8032 1.3922 1.0277 0 1.7475-.3441 1.7475-1.0493 0-.7457-.5753-1.0278-2.0759-1.2895-2.0781-.3622-4.2984-.8473-4.2984-3.3666 0-2.157 1.8051-3.4071 4.2567-3.4071 2.2417 0 3.599.564 4.8118 1.5129l-1.2952 1.8333c-1.1101-.7457-2.2-1.1688-3.229-1.1688-.9453 0-1.4801.3621-1.4801.9477 0 .6442.5968.9026 1.954 1.1485 2.1594.3633 4.4418.8473 4.4418 3.2865 0 2.5948-2.3038 3.6271-4.8332 3.6271-2.4043 0-4.0097-.7243-5.1198-1.6528zM78.0436 7.6346c.5957-.9026 1.6855-2.0962 3.556-2.0962.1395.006.2785.0196.4164.0406l-.247 2.842a5.5519 5.5519 0 00-.765-.0599c-1.3155 0-2.3038.6848-2.9198 1.4667V16.5h-3.3101V8.6635c0-1.2907-.0824-2.077-.3092-2.6208l3.229-.5043c.1647.3835.308 1.4926.308 2.0962h.0417zM89.8266 14.7513c-.659.8258-1.892 1.9743-3.8043 1.9743-1.8717 0-3.2087-.9025-3.2087-3.124V5.5553h3.3113v7.0998c0 .9668.37 1.4903 1.2952 1.4903.8834 0 1.646-.4625 2.3862-1.0876V5.5553h3.3101v7.8252c0 1.2896.0824 2.2767.3283 2.8205l-3.3101.5235c-.1648-.422-.2674-1.4294-.2674-1.9743l-.0406.001z"/>
    <path fill="#E50046" d="M1.8277 3.6554C.8147 3.643-.0001 2.8182 0 1.805A1.8142 1.8142 0 011.8277 0a1.8153 1.8153 0 011.8277 1.8051c-.0005 1.0129-.815 1.8373-1.8277 1.8503z"/>
    <path fill="#FC0" d="M1.8277 8.2224C.8153 8.2106.0005 7.3869 0 6.3744a1.8142 1.8142 0 011.8277-1.8052 1.8153 1.8153 0 011.8277 1.8052c-.0012 1.0122-.8155 1.8356-1.8277 1.848z"/>
    <path fill="#13A538" d="M1.8277 12.7905C.8157 12.7787.0012 11.9556 0 10.9435a1.813 1.813 0 011.8277-1.805 1.8142 1.8142 0 011.8277 1.805c-.0018 1.0119-.816 1.8346-1.8277 1.847z"/>
    <path fill="#009FE3" d="M1.8277 17.3586C.8153 17.3468.0005 16.523 0 15.5106a1.8142 1.8142 0 011.8277-1.8052 1.8153 1.8153 0 011.8277 1.8052c-.0012 1.0122-.8155 1.8356-1.8277 1.848z"/>
    <path fill="#FFF" d="M72.1927 16.869c-1.0124-.0118-1.8271-.8356-1.8277-1.848 0-1.0095.8183-1.8278 1.8277-1.8278s1.8277.8183 1.8277 1.8277c-.0005 1.0125-.8153 1.8363-1.8277 1.848z"/>
    <path fill="#A863A5" d="M1.8277 21.9267C.8166 21.9149.0024 21.0932 0 20.082a1.8142 1.8142 0 011.8277-1.8052 1.8153 1.8153 0 011.8277 1.8052c-.003 1.0109-.8169 1.8322-1.8277 1.8446z"/>
  </g>
</svg>
